<?xml version="1.0" encoding="UTF-8"?>
<svg id="Layer_2" data-name="Layer 2" xmlns="http://www.w3.org/2000/svg" viewBox="0 0 198 146">
  <defs>
    <style>
      .cls-1 {
        fill: #000;
        stroke-width: 0px;
      }

      .cls-2 {
        fill: none;
        stroke: #000;
        stroke-miterlimit: 10;
        stroke-width: 6px;
      }
    </style>
  </defs>
  <g id="Layer_3" data-name="Layer 3">
    <g>
      <rect class="cls-2" x="3" y="3" width="192" height="140" rx="31.46" ry="31.46"/>
      <g>
        <path class="cls-1" d="M76.24,77.8c-2.04-.83-4.23-1.25-6.44-1.23-6.42,0-11.62,3.29-11.62,7.34s5.2,7.34,11.62,7.34,11.62-3.29,11.62-7.34v-33.01l29.44-4.71v-13.43l-34.62,5.54v39.5Z"/>
        <path class="cls-1" d="M97.46,60.64v39.49c-2.04-.83-4.23-1.25-6.44-1.23-6.42,0-11.62,3.29-11.62,7.34s5.2,7.34,11.62,7.34,11.62-3.29,11.62-7.34v-24.54l31.17-4.99v16.76c-2.04-.83-4.23-1.25-6.44-1.23-6.42,0-11.62,3.29-11.62,7.34s5.2,7.34,11.62,7.34,11.62-3.29,11.62-7.34v-45.61l-41.54,6.65ZM102.65,79.23v-5.99l31.17-4.99v5.99l-31.17,4.99Z"/>
      </g>
    </g>
  </g>
</svg>