<?xml version="1.0" encoding="UTF-8"?>
<svg id="Layer_2" data-name="Layer 2" xmlns="http://www.w3.org/2000/svg" viewBox="0 0 431.5 598.21">
  <defs>
    <style>
      .cls-1 {
        fill: #fefdfd;
      }

      .cls-1, .cls-2, .cls-3, .cls-4, .cls-5, .cls-6, .cls-7, .cls-8 {
        stroke-width: 0px;
      }

      .cls-2 {
        fill: #000;
      }

      .cls-3 {
        fill: #fe7f0c;
      }

      .cls-4 {
        fill: #f8e4d6;
      }

      .cls-5 {
        fill: #c5ced8;
      }

      .cls-6 {
        fill: #e94a13;
      }

      .cls-7 {
        fill: #f95805;
      }

      .cls-8 {
        fill: #fca51d;
      }
    </style>
  </defs>
  <g id="Layer_3" data-name="Layer 3">
    <path class="cls-2" d="M66.34,232.63c3.04-4.12,1.44-14.92,1-25,0,0,277.09-14.06,292-2-3,12-3,20,2,28-16.73,15.64-117,130-135,137-56.11,21.82-29.8-39.8-32.44-30.14l-52.56-62.86c-14.17-15.19-78.46-40.31-75-45Z"/>
    <path class="cls-7" d="M152.32,514.64c-19.37-20.97-13.33-23.84,10.44-11.1,8.67,5.7,9.11-.1,12.63-6.86,86.95-167.06,138.95-184.06,254.95-183.06-4.09,2.62,4.02,23.7,0,26-117,67-135,82-244.99,159.23,4.5-9.67,11.95-20.85,20.66-26.09,3.2,15.61-15.16,34.08-20.79,49.69-6.05,13.18-24.15-3.85-32.91-7.82Z"/>
    <path class="cls-8" d="M430.34,339.63s3,33.25-9,39c-84.8,40.62-122.77,32.65-139,87.92-4.75,16.18-25,85.26-54.7,61.83-28.82-22.74-47.12,17.08-20.3-50.75,34-86,131-144,223-138Z"/>
    <path class="cls-3" d="M193.9,340.49c-6.22-36.22-15.83-71.15-39.09-100.73-6.16-7.83-13.14-14.19-20.88-19.15-16.46-10.56-32.56-12.52-38.88-13.21-10.51-1.16-19.31-.37-25.3.56-.68.24-1.56.44-2.16,0-.6-.44-.63-1.32-.65-1.51-1.27-13.77-7.58-25.82-13.66-37.78-17.87-35.13-22.99-72.24-18.81-111.08,1.59-14.76,4.24-29.29,7.63-43.71,1.1-4.68,2.54-9.29,3.77-13.74,1.67-.54,2.11.57,2.6,1.32,13.7,21.17,33.04,35.76,54.96,47.43,10.87,5.78,21.7,11.67,31.65,19.01.8.59,13.87,9.06,21.77,6.75,13.72-4.01,59.48-13.68,59.48-10.02,0,85.47-.34,171.62-.37,257.09,0,3.49-.1,6.95-.62,10.45-.59,3.89-2.21,6.53-5.97,7.75-3.33.83-6.72,1.48-10.04,2.41-1.73.49-3.56.81-5.23-.34-.51-.43-.58-.93-.21-1.49Z"/>
    <path class="cls-6" d="M216.34,64.63c0-.83,34.63,4.32,53.71,10.04,7.55,2.26,12.84,1.35,18.4-4.43,5.77-5.99,13.42-9.81,20.77-13.71C336.02,42.3,362.21,27.38,377.77,0c2.45.48,2.23,2.15,2.55,3.26,7.62,26.53,12.15,53.54,12.31,81.2.18,30.04-6.96,58.33-20.33,85.17-5.71,11.47-11.3,23.06-13.07,35.98-.28,2.03-.91,2.72-3.22,2.42-41.41-5.35-73.24,9.45-95,45.35-13.74,22.68-21.46,47.51-26.17,73.38-.85,4.64-3.14,9.2-1.57,14.14.02,1.06-.74,1.43-1.55,1.78-7.14-.06-13.95-2.81-21.15-2.51-1.11.05,5.78-187.97,5.78-275.55Z"/>
    <path class="cls-4" d="M232.88,341.19l.29-.02s.09-.26.09-.26c19.64-50.11,56.18-83.15,104.97-103.75,5.96-2.52,12.31-3.88,18.67-5.17,1.85-.38,3-.4,4.18,1.36,17.89,26.78,40.15,49.63,64,71.05.2.18.19.58.36,1.14-14.34-2.96-28.72-4.4-43.22-3.86-43.71,1.63-84.13,12.99-119.18,40.35-11.36,8.87-21.07,19.37-30.8,29.88-14.3,15.45-23.62,15.93-37.65.49-15.66-17.24-32.4-33.01-52.87-44.42-36.45-20.32-75.68-28.07-117.12-25.83-7.93.43-15.74,1.67-24.61,3.37,10.93-9.56,20.5-19,29.82-28.69,12.71-13.22,24.35-27.32,34.82-42.38,1.66-2.39,3.07-3.02,6.09-2.42,29.73,5.9,53.83,21.95,75.78,41.8,20.13,18.2,35.82,39.63,45.93,64.96.28.7.33,1.69,1.46,1.71-.04.28.04.51.25.69.25.81.43,1.69,0,2.43-3.46,5.89-.69,10.81,2.37,15.7.89,1.42,2.11,2.56,3.27,3.75,10,10.26,16.78,10.33,26.21-.36,4.72-5.35,9.24-11.16,6.23-19.22-.3-.8.07-1.63.66-2.29Z"/>
    <path class="cls-5" d="M152.32,513.83c9.77.16,23.41,17.99,30.46,9.25,7.34-9.83,27.53-66.95,26.66-36.57-2.15,75.76,8.9,116.13-4.1,111.13-8.99-3.46-24.74-33.13-53.03-83.8Z"/>
    <path class="cls-1" d="M207.34,477.63c6,0,15.82,30.59,24.73,45.6,35.23,1.06,43.37-31.75,8.44,29.04-16.3,31.12-28.25,49.51-35.16,45.36-5-3,7.85-81.69,2-120Z"/>
  </g>
</svg>