<?xml version="1.0" encoding="UTF-8"?>
<svg id="Layer_2" data-name="Layer 2" xmlns="http://www.w3.org/2000/svg" viewBox="0 0 198 146">
  <defs>
    <style>
      .cls-1 {
        fill: none;
        stroke-width: 6px;
      }

      .cls-1, .cls-2 {
        stroke: #000;
        stroke-miterlimit: 10;
      }

      .cls-2 {
        fill: #000;
        stroke-width: 3px;
      }
    </style>
  </defs>
  <g id="Layer_1-2" data-name="Layer 1">
    <g>
      <rect class="cls-1" x="3" y="3" width="192" height="140" rx="31.46" ry="31.46"/>
      <path class="cls-2" d="M112.98,33.83c-.44-.24-.98-.22-1.4.06l-31.02,20.21h-23.66c-2.49,0-4.5,2.02-4.51,4.51v28.84c0,2.49,2.02,4.5,4.51,4.51h23.66l31.02,20.21c.64.41,1.49.23,1.9-.41.14-.22.22-.48.22-.74V35.03c0-.5-.27-.96-.71-1.21ZM55.13,87.44v-28.84c0-.97.79-1.76,1.76-1.76h22.69v32.36h-22.69c-.97,0-1.76-.79-1.76-1.76ZM110.95,108.48l-28.62-18.65v-33.62l28.62-18.64v70.91ZM135.05,73.02l10.13-10.13c.54-.54.54-1.4,0-1.94s-1.4-.54-1.94,0h0l-10.13,10.13-10.13-10.13c-.53-.54-1.39-.56-1.94-.03-.54.53-.56,1.39-.03,1.94.01.01.02.02.03.03l10.13,10.13-10.13,10.13c-.55.53-.56,1.39-.03,1.94.53.55,1.39.56,1.94.03.01-.01.02-.02.03-.03l10.13-10.13,10.13,10.13c.54.54,1.4.54,1.94,0s.54-1.4,0-1.94h0l-10.13-10.13Z"/>
    </g>
  </g>
</svg>